<svg width="20" height="20" viewBox="0 0 20 20" fill="none" xmlns="http://www.w3.org/2000/svg">
<path d="M7.55312 4.52109C7.51621 4.48066 7.49057 4.43124 7.47877 4.37778C7.46697 4.32432 7.46942 4.2687 7.48587 4.21648C7.50233 4.16427 7.53221 4.11729 7.57253 4.08026C7.61285 4.04322 7.66219 4.01743 7.71562 4.00547C8.46495 3.83414 9.23132 3.74843 9.99999 3.75C12.725 3.75 15.2008 4.78594 17.1609 6.74609C18.632 8.21719 19.2937 9.68516 19.3211 9.74687C19.3566 9.82681 19.375 9.91331 19.375 10.0008C19.375 10.0883 19.3566 10.1748 19.3211 10.2547C19.2937 10.3164 18.632 11.7836 17.1609 13.2547C16.938 13.4766 16.7091 13.6867 16.4742 13.8852C16.4124 13.9376 16.3326 13.964 16.2517 13.9588C16.1708 13.9535 16.0951 13.917 16.0406 13.857L7.55312 4.52109ZM16.7125 16.4547C16.7688 16.5152 16.8126 16.5863 16.8413 16.6639C16.87 16.7415 16.8829 16.824 16.8795 16.9066C16.876 16.9893 16.8562 17.0704 16.8212 17.1453C16.7861 17.2202 16.7366 17.2875 16.6754 17.3431C16.6142 17.3987 16.5425 17.4416 16.4646 17.4694C16.3867 17.4971 16.304 17.5091 16.2215 17.5046C16.1389 17.5002 16.058 17.4794 15.9835 17.4435C15.909 17.4075 15.8424 17.3572 15.7875 17.2953L14.0625 15.4008C12.7832 15.9666 11.3988 16.256 9.99999 16.25C7.27499 16.25 4.79921 15.2141 2.83905 13.2547C1.36796 11.7836 0.703118 10.3164 0.678899 10.2547C0.643362 10.1748 0.625 10.0883 0.625 10.0008C0.625 9.91331 0.643362 9.82681 0.678899 9.74687C0.703118 9.6875 1.36796 8.21719 2.83905 6.74609C3.42678 6.15566 4.08239 5.63694 4.79218 5.20078L3.28749 3.54531C3.23114 3.48478 3.18736 3.41366 3.15869 3.33608C3.13003 3.2585 3.11704 3.176 3.1205 3.09336C3.12395 3.01073 3.14377 2.9296 3.17881 2.85468C3.21384 2.77976 3.2634 2.71254 3.32461 2.65692C3.38582 2.6013 3.45746 2.55837 3.53537 2.53064C3.61329 2.50291 3.69594 2.49091 3.77853 2.49536C3.86111 2.4998 3.942 2.52059 4.01649 2.55652C4.09099 2.59246 4.15761 2.64282 4.21249 2.70469L16.7125 16.4547ZM11.5961 12.6852L7.47968 8.15391C7.05551 8.73507 6.84488 9.44481 6.88335 10.1633C6.92182 10.8817 7.20703 11.5649 7.69083 12.0975C8.17463 12.63 8.82737 12.9793 9.53886 13.0864C10.2503 13.1935 10.977 13.0517 11.5961 12.6852Z" fill="#98A2B3"/>
</svg>
