<svg width="20" height="20" viewBox="0 0 20 20" fill="none" xmlns="http://www.w3.org/2000/svg">
<path fill-rule="evenodd" clip-rule="evenodd" d="M3.49167 6.05167C4.95 4.6475 7.0975 3.33334 10 3.33334C12.9025 3.33334 15.05 4.6475 16.5083 6.05167C17.5297 7.04363 18.3753 8.20174 19.0092 9.47667C19.17 9.80917 19.17 10.1908 19.0092 10.5225C18.3757 11.7977 17.5303 12.9561 16.5092 13.9483C15.05 15.3525 12.9025 16.6667 10 16.6667C7.0975 16.6667 4.95 15.3525 3.49167 13.9483C2.47029 12.9564 1.62468 11.7983 0.990837 10.5233C0.911911 10.3603 0.870911 10.1815 0.870911 10.0004C0.870911 9.8193 0.911911 9.64052 0.990837 9.4775C1.62435 8.20234 2.47052 7.04395 3.49167 6.05167ZM10 12.5C10.663 12.5 11.2989 12.2366 11.7678 11.7678C12.2366 11.2989 12.5 10.663 12.5 10C12.5 9.33696 12.2366 8.70108 11.7678 8.23224C11.2989 7.76339 10.663 7.5 10 7.5C9.33696 7.5 8.70108 7.76339 8.23224 8.23224C7.7634 8.70108 7.5 9.33696 7.5 10C7.5 10.663 7.7634 11.2989 8.23224 11.7678C8.70108 12.2366 9.33696 12.5 10 12.5Z" fill="#98A2B3"/>
</svg>
