<svg width="140" height="64" viewBox="0 0 140 64" fill="none" xmlns="http://www.w3.org/2000/svg">
<path d="M35.54 26.51C35.72 26.97 35.88 27.3 36.02 27.5C36.18 27.7 36.39 27.84 36.65 27.92C36.91 27.98 37.32 28.01 37.88 28.01V29H28.88V28.01H30.29C30.83 28.01 31.1 27.78 31.1 27.32C31.1 27.14 31.07 26.95 31.01 26.75L29.3 21.98H23.12L21.41 26.84C21.35 27.04 21.32 27.22 21.32 27.38C21.32 27.6 21.38 27.76 21.5 27.86C21.64 27.96 21.87 28.01 22.19 28.01H23.45V29H17.21V28.01C18.03 28.01 18.61 27.91 18.95 27.71C19.29 27.49 19.59 27.04 19.85 26.36L26.45 9.2H29.3L35.54 26.51ZM28.91 20.87L26.24 13.46H26.15L23.51 20.87H28.91ZM38.7702 11.69C38.5702 11.09 38.3102 10.69 37.9902 10.49C37.6902 10.29 37.1902 10.19 36.4902 10.19V9.2H45.4902V10.19H44.2002C43.6202 10.19 43.3302 10.42 43.3302 10.88C43.3302 11.06 43.3702 11.26 43.4502 11.48L47.9802 24.5H48.0702L52.3302 11.6C52.4302 11.3 52.4802 11.06 52.4802 10.88C52.4802 10.42 52.1902 10.19 51.6102 10.19H50.2602V9.2H56.2302V10.19C55.5902 10.19 55.1002 10.32 54.7602 10.58C54.4202 10.84 54.1202 11.32 53.8602 12.02L47.7102 29H44.8602L38.7702 11.69ZM71.6045 26.51C71.7845 26.97 71.9445 27.3 72.0845 27.5C72.2445 27.7 72.4545 27.84 72.7145 27.92C72.9745 27.98 73.3845 28.01 73.9445 28.01V29H64.9445V28.01H66.3545C66.8945 28.01 67.1645 27.78 67.1645 27.32C67.1645 27.14 67.1345 26.95 67.0745 26.75L65.3645 21.98H59.1845L57.4745 26.84C57.4145 27.04 57.3845 27.22 57.3845 27.38C57.3845 27.6 57.4445 27.76 57.5645 27.86C57.7045 27.96 57.9345 28.01 58.2545 28.01H59.5145V29H53.2745V28.01C54.0945 28.01 54.6745 27.91 55.0145 27.71C55.3545 27.49 55.6545 27.04 55.9145 26.36L62.5145 9.2H65.3645L71.6045 26.51ZM64.9745 20.87L62.3045 13.46H62.2145L59.5745 20.87H64.9745ZM78.834 12.89H78.774V26.45C78.774 27.01 78.884 27.41 79.104 27.65C79.324 27.89 79.714 28.01 80.274 28.01H81.324V29H75.324V28.01H76.104C76.584 28.01 76.934 27.89 77.154 27.65C77.394 27.39 77.514 26.99 77.514 26.45V11.9C77.514 11.38 77.464 11.01 77.364 10.79C77.284 10.57 77.094 10.42 76.794 10.34C76.494 10.26 75.994 10.21 75.294 10.19V9.2H81.864L91.164 23.57H91.254V11.63C91.254 10.67 90.744 10.19 89.724 10.19H88.674V9.2H94.614V10.19H93.894C92.974 10.19 92.514 10.67 92.514 11.63V29.21H89.514L78.834 12.89ZM100.344 28.01C101.104 28.01 101.634 27.98 101.934 27.92C102.254 27.84 102.454 27.7 102.534 27.5C102.634 27.28 102.684 26.9 102.684 26.36V10.25H101.274C100.094 10.25 99.1835 10.58 98.5435 11.24C97.9035 11.9 97.4735 12.97 97.2535 14.45H96.2035L96.2335 9.2H113.694V14.45H112.674C112.374 12.87 111.904 11.78 111.264 11.18C110.644 10.56 109.724 10.25 108.504 10.25H107.244V26.36C107.244 26.88 107.294 27.25 107.394 27.47C107.494 27.69 107.694 27.84 107.994 27.92C108.314 27.98 108.844 28.01 109.584 28.01V29H100.344V28.01ZM115.405 28.01C116.105 28.01 116.595 27.97 116.875 27.89C117.175 27.81 117.365 27.66 117.445 27.44C117.545 27.22 117.595 26.85 117.595 26.33V11.93C117.595 11.39 117.545 11.01 117.445 10.79C117.345 10.55 117.145 10.39 116.845 10.31C116.565 10.23 116.085 10.19 115.405 10.19V9.2H124.315V10.19C123.635 10.19 123.145 10.23 122.845 10.31C122.565 10.39 122.375 10.55 122.275 10.79C122.195 11.01 122.155 11.39 122.155 11.93V26.33C122.155 26.87 122.195 27.25 122.275 27.47C122.375 27.69 122.565 27.84 122.845 27.92C123.145 27.98 123.635 28.01 124.315 28.01V29H115.405V28.01Z" fill="white"/>
<line x1="17" y1="38.5" x2="126" y2="38.5" stroke="white"/>
<path d="M40.664 47.492L40.7 47.222C40.7 47.006 40.574 46.898 40.322 46.898C40.082 46.898 39.848 47.06 39.62 47.384C39.392 47.696 39.278 47.954 39.278 48.158C39.278 48.362 39.29 48.524 39.314 48.644C39.338 48.764 39.362 48.866 39.386 48.95C39.422 49.022 39.476 49.112 39.548 49.22C39.62 49.328 39.674 49.406 39.71 49.454L39.908 49.706C39.992 49.826 40.052 49.904 40.088 49.94C40.712 49.424 41.456 48.848 42.32 48.212C42.368 48.176 42.422 48.158 42.482 48.158C42.602 48.158 42.662 48.224 42.662 48.356C42.662 48.488 42.608 48.59 42.5 48.662C41.732 49.154 41.006 49.688 40.322 50.264C40.586 50.648 40.718 51.068 40.718 51.524C40.718 51.98 40.544 52.37 40.196 52.694C39.848 53.018 39.404 53.18 38.864 53.18C38.324 53.18 38.054 52.922 38.054 52.406C38.054 52.034 38.45 51.464 39.242 50.696C39.182 50.624 39.074 50.51 38.918 50.354C38.762 50.186 38.642 50.054 38.558 49.958C38.486 49.862 38.396 49.736 38.288 49.58C38.096 49.28 38 48.956 38 48.608C38 47.9 38.228 47.33 38.684 46.898C39.14 46.454 39.626 46.232 40.142 46.232C40.466 46.232 40.718 46.322 40.898 46.502C41.078 46.67 41.168 46.844 41.168 47.024C41.168 47.432 41.072 47.636 40.88 47.636C40.736 47.636 40.664 47.588 40.664 47.492ZM39.512 51.038C39.032 51.518 38.792 51.908 38.792 52.208C38.792 52.496 38.942 52.64 39.242 52.64C39.422 52.64 39.572 52.568 39.692 52.424C39.956 52.064 39.896 51.602 39.512 51.038ZM43.2381 52.028L43.2561 52.586C43.2561 52.922 43.1601 53.09 42.9681 53.09C42.6801 53.09 42.4041 53.054 42.1401 52.982C41.8761 52.898 41.7441 52.79 41.7441 52.658C41.7441 52.514 41.7741 52.04 41.8341 51.236C41.9061 50.42 41.9421 49.808 41.9421 49.4V48.356C41.9421 45.284 42.4881 43.328 43.5801 42.488C43.8321 42.296 44.0901 42.2 44.3541 42.2C44.4741 42.2 44.5941 42.332 44.7141 42.596C44.8341 42.86 44.8941 43.202 44.8941 43.622C44.8941 44.654 44.7201 45.62 44.3721 46.52C44.0241 47.42 43.6701 48.11 43.3101 48.59C43.2981 48.89 43.2921 49.358 43.2921 49.994C43.3401 49.922 43.5921 49.514 44.0481 48.77C44.5041 48.026 44.8881 47.48 45.2001 47.132C45.5241 46.784 45.8121 46.61 46.0641 46.61C46.3161 46.61 46.5381 46.694 46.7301 46.862C46.9341 47.03 47.0361 47.24 47.0361 47.492C47.0361 48.02 46.9761 48.8 46.8561 49.832C46.7481 50.852 46.6941 51.5 46.6941 51.776C46.6941 52.04 46.7301 52.172 46.8021 52.172C47.0061 52.16 47.2881 51.908 47.6481 51.416C48.0081 50.912 48.3621 50.27 48.7101 49.49C49.0701 48.71 49.2861 48.32 49.3581 48.32C49.4421 48.32 49.4841 48.368 49.4841 48.464C49.4841 48.8 49.3101 49.334 48.9621 50.066C48.0141 52.082 47.2161 53.09 46.5681 53.09C46.1001 53.09 45.7461 52.994 45.5061 52.802C45.4221 52.718 45.3801 52.502 45.3801 52.154C45.3801 51.794 45.4101 51.218 45.4701 50.426C45.5421 49.622 45.5781 49.022 45.5781 48.626C45.5781 48.23 45.5061 48.032 45.3621 48.032C45.2301 48.032 44.8701 48.446 44.2821 49.274C43.6941 50.09 43.3821 50.612 43.3461 50.84C43.2741 51.26 43.2381 51.656 43.2381 52.028ZM44.4081 44.018C44.4081 43.514 44.3421 43.262 44.2101 43.262C43.9941 43.262 43.7841 43.928 43.5801 45.26C43.4721 45.968 43.3941 46.79 43.3461 47.726C44.0541 46.25 44.4081 45.014 44.4081 44.018ZM54.0578 49.094C54.5378 48.938 54.8678 48.806 55.0478 48.698C55.2398 48.578 55.3838 48.488 55.4798 48.428L55.6958 48.302C55.7558 48.266 55.8038 48.248 55.8398 48.248C55.9358 48.248 55.9838 48.302 55.9838 48.41C55.9838 48.518 55.7978 48.71 55.4258 48.986C55.0538 49.25 54.5918 49.49 54.0398 49.706C53.9558 50.714 53.6378 51.53 53.0858 52.154C52.5338 52.778 51.7478 53.09 50.7278 53.09C49.9838 53.09 49.4138 52.796 49.0178 52.208C48.6218 51.608 48.4238 50.912 48.4238 50.12C48.4238 49.316 48.6578 48.56 49.1258 47.852C49.6058 47.144 50.2178 46.79 50.9618 46.79C51.2978 46.55 51.6938 46.43 52.1498 46.43C52.6178 46.43 53.0498 46.676 53.4458 47.168C53.8418 47.66 54.0458 48.302 54.0578 49.094ZM52.8878 50.012L52.2398 50.048C51.6878 50.048 51.2198 49.886 50.8358 49.562C50.4518 49.226 50.2598 48.86 50.2598 48.464C50.2598 48.068 50.3258 47.726 50.4578 47.438C49.9418 47.846 49.6838 48.65 49.6838 49.85C49.6838 50.426 49.8038 50.978 50.0438 51.506C50.2838 52.022 50.6618 52.28 51.1778 52.28C51.6938 52.28 52.0958 52.064 52.3838 51.632C52.6718 51.188 52.8398 50.648 52.8878 50.012ZM51.7718 47.024C51.5798 47.024 51.4298 47.114 51.3218 47.294C51.2138 47.462 51.1598 47.648 51.1598 47.852C51.1598 48.296 51.3098 48.656 51.6098 48.932C51.9218 49.208 52.2818 49.346 52.6898 49.346H52.9058C52.8818 48.758 52.7798 48.224 52.5998 47.744C52.4318 47.264 52.1558 47.024 51.7718 47.024ZM57.1765 53.09C56.5045 53.09 55.9705 52.838 55.5745 52.334C55.1785 51.818 54.9805 51.236 54.9805 50.588C54.9805 49.28 55.2565 48.29 55.8085 47.618C56.3605 46.946 57.0745 46.61 57.9505 46.61C58.3585 46.61 58.6945 46.724 58.9585 46.952C59.2225 47.168 59.3545 47.468 59.3545 47.852C59.3545 48.572 59.0485 49.178 58.4365 49.67C57.8365 50.15 57.0985 50.402 56.2225 50.426C56.2705 50.894 56.4265 51.302 56.6905 51.65C56.9665 51.986 57.2845 52.154 57.6445 52.154C58.0045 52.154 58.3285 52.07 58.6165 51.902C58.9045 51.734 59.1685 51.494 59.4085 51.182C59.9125 50.522 60.3445 49.772 60.7045 48.932C60.8005 48.716 60.8725 48.56 60.9205 48.464C60.9805 48.368 61.0405 48.32 61.1005 48.32C61.1725 48.32 61.2085 48.368 61.2085 48.464C61.2085 49.064 60.8425 49.964 60.1105 51.164C59.3185 52.448 58.3405 53.09 57.1765 53.09ZM56.2225 49.994C56.9305 49.874 57.4465 49.646 57.7705 49.31C58.1065 48.974 58.2745 48.536 58.2745 47.996C58.2745 47.456 58.1005 47.186 57.7525 47.186C57.3325 47.186 56.9785 47.48 56.6905 48.068C56.4025 48.644 56.2465 49.286 56.2225 49.994ZM62.9179 47.492L62.9539 47.222C62.9539 47.006 62.8279 46.898 62.5759 46.898C62.3359 46.898 62.1019 47.06 61.8739 47.384C61.6459 47.696 61.5319 47.954 61.5319 48.158C61.5319 48.362 61.5439 48.524 61.5679 48.644C61.5919 48.764 61.6159 48.866 61.6399 48.95C61.6759 49.022 61.7299 49.112 61.8019 49.22C61.8739 49.328 61.9279 49.406 61.9639 49.454L62.1619 49.706C62.2459 49.826 62.3059 49.904 62.3419 49.94C62.9659 49.424 63.7099 48.848 64.5739 48.212C64.6219 48.176 64.6759 48.158 64.7359 48.158C64.8559 48.158 64.9159 48.224 64.9159 48.356C64.9159 48.488 64.8619 48.59 64.7539 48.662C63.9859 49.154 63.2599 49.688 62.5759 50.264C62.8399 50.648 62.9719 51.068 62.9719 51.524C62.9719 51.98 62.7979 52.37 62.4499 52.694C62.1019 53.018 61.6579 53.18 61.1179 53.18C60.5779 53.18 60.3079 52.922 60.3079 52.406C60.3079 52.034 60.7039 51.464 61.4959 50.696C61.4359 50.624 61.3279 50.51 61.1719 50.354C61.0159 50.186 60.8959 50.054 60.8119 49.958C60.7399 49.862 60.6499 49.736 60.5419 49.58C60.3499 49.28 60.2539 48.956 60.2539 48.608C60.2539 47.9 60.4819 47.33 60.9379 46.898C61.3939 46.454 61.8799 46.232 62.3959 46.232C62.7199 46.232 62.9719 46.322 63.1519 46.502C63.3319 46.67 63.4219 46.844 63.4219 47.024C63.4219 47.432 63.3259 47.636 63.1339 47.636C62.9899 47.636 62.9179 47.588 62.9179 47.492ZM61.7659 51.038C61.2859 51.518 61.0459 51.908 61.0459 52.208C61.0459 52.496 61.1959 52.64 61.4959 52.64C61.6759 52.64 61.8259 52.568 61.9459 52.424C62.2099 52.064 62.1499 51.602 61.7659 51.038ZM70.104 47.384C69.492 46.256 69.186 45.344 69.186 44.648C69.186 43.952 69.444 43.334 69.96 42.794C70.476 42.254 71.136 41.984 71.94 41.984C72.756 41.984 73.392 42.164 73.848 42.524C74.304 42.872 74.532 43.358 74.532 43.982C74.532 44.606 74.262 45.176 73.722 45.692C73.158 46.208 72.654 46.604 72.21 46.88C71.778 47.156 71.538 47.312 71.49 47.348C72.306 48.524 73.314 49.634 74.514 50.678C74.718 50.246 74.82 49.85 74.82 49.49C74.82 49.118 74.748 48.83 74.604 48.626C74.46 48.41 74.292 48.29 74.1 48.266C73.92 48.242 73.83 48.164 73.83 48.032C73.83 47.864 73.914 47.732 74.082 47.636C74.25 47.54 74.496 47.492 74.82 47.492C75.156 47.492 75.432 47.624 75.648 47.888C75.876 48.152 75.99 48.476 75.99 48.86C75.99 49.7 75.72 50.492 75.18 51.236C76.02 51.896 76.812 52.364 77.556 52.64C77.7 52.688 77.814 52.73 77.898 52.766C77.982 52.79 78.06 52.82 78.132 52.856C78.276 52.916 78.348 53 78.348 53.108C78.348 53.228 78.216 53.36 77.952 53.504C77.7 53.66 77.472 53.738 77.268 53.738C76.332 53.738 75.264 53.258 74.064 52.298C73.164 52.922 72.126 53.234 70.95 53.234C69.786 53.234 68.934 52.988 68.394 52.496C67.854 51.992 67.584 51.398 67.584 50.714C67.584 50.018 67.8 49.424 68.232 48.932C68.676 48.428 69.3 47.912 70.104 47.384ZM69.114 50.21C69.114 50.846 69.348 51.386 69.816 51.83C70.284 52.274 70.872 52.496 71.58 52.496C72.288 52.496 72.942 52.274 73.542 51.83C72.366 50.762 71.334 49.496 70.446 48.032C69.558 48.692 69.114 49.418 69.114 50.21ZM71.112 46.736C71.796 46.292 72.312 45.884 72.66 45.512C73.02 45.128 73.2 44.708 73.2 44.252C73.2 43.784 73.068 43.406 72.804 43.118C72.54 42.83 72.168 42.686 71.688 42.686C71.22 42.686 70.872 42.86 70.644 43.208C70.428 43.544 70.32 43.994 70.32 44.558C70.32 45.11 70.584 45.836 71.112 46.736ZM84.116 46.79C84.668 46.79 85.124 46.994 85.484 47.402C85.844 47.798 86.03 48.356 86.042 49.076C86.534 48.932 86.966 48.758 87.338 48.554C87.722 48.35 87.926 48.248 87.95 48.248C88.022 48.248 88.058 48.308 88.058 48.428C88.058 48.548 87.884 48.734 87.536 48.986C87.2 49.238 86.69 49.49 86.006 49.742C85.862 50.81 85.43 51.638 84.71 52.226C83.99 52.802 83.27 53.09 82.55 53.09C81.83 53.09 81.35 52.826 81.11 52.298C80.87 51.758 80.75 50.912 80.75 49.76C80.75 48.608 80.834 47.516 81.002 46.484C81.17 45.452 81.386 44.642 81.65 44.054C81.914 43.454 82.184 42.998 82.46 42.686C82.748 42.362 83.018 42.2 83.27 42.2C83.39 42.2 83.498 42.344 83.594 42.632C83.702 42.92 83.756 43.274 83.756 43.694C83.756 44.618 83.588 45.698 83.252 46.934C83.48 46.838 83.768 46.79 84.116 46.79ZM84.926 50.03C84.83 50.042 84.626 50.048 84.314 50.048C84.014 50.048 83.678 49.946 83.306 49.742C82.946 49.526 82.7 49.232 82.568 48.86C82.448 49.16 82.31 49.448 82.154 49.724C82.178 50.636 82.25 51.29 82.37 51.686C82.49 52.082 82.682 52.28 82.946 52.28C83.366 52.28 83.774 52.106 84.17 51.758C84.578 51.398 84.83 50.822 84.926 50.03ZM83.324 44.018C83.324 43.514 83.258 43.262 83.126 43.262C83.018 43.262 82.886 43.526 82.73 44.054C82.586 44.57 82.448 45.278 82.316 46.178C82.196 47.066 82.136 47.948 82.136 48.824C82.928 46.58 83.324 44.978 83.324 44.018ZM83.828 47.438C83.66 47.438 83.522 47.492 83.414 47.6C83.318 47.696 83.27 47.828 83.27 47.996C83.27 48.368 83.432 48.68 83.756 48.932C84.092 49.172 84.494 49.292 84.962 49.292C84.95 48.8 84.854 48.368 84.674 47.996C84.494 47.624 84.212 47.438 83.828 47.438ZM92.2592 53.09C91.7912 53.09 91.4372 52.994 91.1972 52.802C91.1132 52.718 91.0712 52.508 91.0712 52.172C91.0712 51.824 91.0832 51.362 91.1072 50.786C90.7952 51.566 90.4832 52.148 90.1712 52.532C89.8712 52.904 89.4812 53.09 89.0012 53.09C88.5212 53.09 88.1012 52.868 87.7412 52.424C87.3812 51.968 87.2012 51.26 87.2012 50.3C87.2012 49.328 87.4712 48.47 88.0112 47.726C88.5632 46.982 89.2832 46.61 90.1712 46.61C90.5552 46.61 90.9872 46.862 91.4672 47.366C91.5632 47.234 91.7312 47.078 91.9712 46.898C92.2232 46.706 92.4332 46.61 92.6012 46.61C92.7812 46.61 92.8712 46.838 92.8712 47.294C92.8712 47.414 92.8352 47.648 92.7632 47.996C92.7032 48.344 92.6312 48.596 92.5472 48.752C92.4392 49.028 92.3852 50.006 92.3852 51.686C92.3852 52.01 92.4212 52.172 92.4932 52.172C92.6972 52.16 92.9792 51.908 93.3392 51.416C93.6992 50.912 94.0532 50.27 94.4012 49.49C94.7612 48.71 94.9772 48.32 95.0492 48.32C95.1332 48.32 95.1752 48.368 95.1752 48.464C95.1752 48.8 95.0012 49.334 94.6532 50.066C93.7052 52.082 92.9072 53.09 92.2592 53.09ZM90.0632 47.33C89.7272 47.33 89.3672 47.582 88.9832 48.086C88.6112 48.578 88.4252 49.16 88.4252 49.832C88.4252 50.504 88.5212 51.056 88.7132 51.488C88.9172 51.92 89.1812 52.136 89.5052 52.136C89.9012 52.136 90.4832 51.146 91.2512 49.166C91.2632 49.07 91.2752 48.908 91.2872 48.68C91.3112 48.44 91.3292 48.26 91.3412 48.14C91.2332 47.948 91.0412 47.768 90.7652 47.6C90.5012 47.42 90.2672 47.33 90.0632 47.33ZM98.2138 50.246C97.8418 51.23 97.4938 51.95 97.1698 52.406C96.8578 52.862 96.4438 53.09 95.9278 53.09C95.4118 53.09 94.9738 52.868 94.6138 52.424C94.2658 51.98 94.0918 51.272 94.0918 50.3C94.0918 49.328 94.3618 48.47 94.9018 47.726C95.4538 46.982 96.1738 46.61 97.0618 46.61C97.2418 46.61 97.4578 46.688 97.7098 46.844C97.9618 46.988 98.1838 47.168 98.3758 47.384C98.4118 47.264 98.5858 47.078 98.8978 46.826C99.2098 46.562 99.4498 46.43 99.6178 46.43C99.7978 46.43 99.8878 46.688 99.8878 47.204C99.8878 47.72 99.7798 48.176 99.5638 48.572C99.4438 49.376 99.3778 50.12 99.3658 50.804C100.542 49.316 101.166 48.53 101.238 48.446C101.322 48.362 101.394 48.32 101.454 48.32C101.574 48.32 101.634 48.38 101.634 48.5C101.634 48.572 101.61 48.65 101.562 48.734C101.178 49.298 100.422 50.288 99.2938 51.704C99.2218 53.132 99.1738 54.104 99.1498 54.62C99.0898 56.144 98.8738 57.212 98.5018 57.824C98.1418 58.448 97.4938 58.76 96.5578 58.76C96.1498 58.76 95.7658 58.634 95.4058 58.382C95.0578 58.142 94.8838 57.716 94.8838 57.104C94.8838 56.504 95.1118 55.886 95.5678 55.25C96.0358 54.614 96.8818 53.636 98.1058 52.316L98.2138 50.246ZM96.9538 47.258C96.6178 47.258 96.2578 47.522 95.8738 48.05C95.5018 48.566 95.3158 49.166 95.3158 49.85C95.3158 50.522 95.4118 51.074 95.6038 51.506C95.8078 51.926 96.0598 52.136 96.3598 52.136C96.6598 52.136 96.9478 51.89 97.2238 51.398C97.4998 50.906 97.8538 50.06 98.2858 48.86C98.3098 48.452 98.3218 48.194 98.3218 48.086C98.2258 47.906 98.0278 47.726 97.7278 47.546C97.4278 47.354 97.1698 47.258 96.9538 47.258ZM98.0518 53.162C96.6838 54.638 95.9998 55.82 95.9998 56.708C95.9998 57.116 96.0718 57.452 96.2158 57.716C96.3598 57.98 96.5578 58.112 96.8098 58.112C97.1938 58.112 97.4638 57.902 97.6198 57.482C97.7758 57.062 97.8898 56.21 97.9618 54.926L98.0518 53.162ZM103.453 47.492L103.489 47.222C103.489 47.006 103.363 46.898 103.111 46.898C102.871 46.898 102.637 47.06 102.409 47.384C102.181 47.696 102.067 47.954 102.067 48.158C102.067 48.362 102.079 48.524 102.103 48.644C102.127 48.764 102.151 48.866 102.175 48.95C102.211 49.022 102.265 49.112 102.337 49.22C102.409 49.328 102.463 49.406 102.499 49.454L102.697 49.706C102.781 49.826 102.841 49.904 102.877 49.94C103.501 49.424 104.245 48.848 105.109 48.212C105.157 48.176 105.211 48.158 105.271 48.158C105.391 48.158 105.451 48.224 105.451 48.356C105.451 48.488 105.397 48.59 105.289 48.662C104.521 49.154 103.795 49.688 103.111 50.264C103.375 50.648 103.507 51.068 103.507 51.524C103.507 51.98 103.333 52.37 102.985 52.694C102.637 53.018 102.193 53.18 101.653 53.18C101.113 53.18 100.843 52.922 100.843 52.406C100.843 52.034 101.239 51.464 102.031 50.696C101.971 50.624 101.863 50.51 101.707 50.354C101.551 50.186 101.431 50.054 101.347 49.958C101.275 49.862 101.185 49.736 101.077 49.58C100.885 49.28 100.789 48.956 100.789 48.608C100.789 47.9 101.017 47.33 101.473 46.898C101.929 46.454 102.415 46.232 102.931 46.232C103.255 46.232 103.507 46.322 103.687 46.502C103.867 46.67 103.957 46.844 103.957 47.024C103.957 47.432 103.861 47.636 103.669 47.636C103.525 47.636 103.453 47.588 103.453 47.492ZM102.301 51.038C101.821 51.518 101.581 51.908 101.581 52.208C101.581 52.496 101.731 52.64 102.031 52.64C102.211 52.64 102.361 52.568 102.481 52.424C102.745 52.064 102.685 51.602 102.301 51.038Z" fill="white"/>
</svg>
