<?xml version="1.0" encoding="UTF-8" standalone="no"?>
<!DOCTYPE svg PUBLIC "-//W3C//DTD SVG 1.1//EN" "http://www.w3.org/Graphics/SVG/1.1/DTD/svg11.dtd">
<svg width="100%" height="100%" viewBox="0 0 500 500" version="1.1" xmlns="http://www.w3.org/2000/svg" xmlns:xlink="http://www.w3.org/1999/xlink" xml:space="preserve" style="fill-rule:evenodd;clip-rule:evenodd;stroke-linejoin:round;stroke-miterlimit:1.41421;">
    <g id="Icon-Cart" transform="matrix(14.7059,0,0,14.7059,-1.13687e-13,14.7059)">
        <path id="Fill-110" d="M29,26L7,26C6.668,26 6.358,25.835 6.172,25.56C5.986,25.286 5.948,24.936 6.071,24.628L7.979,19.858L6.1,2L0,2L0,0L7,0C7.512,0 7.941,0.386 7.995,0.895L9.995,19.896C10.012,20.057 9.989,20.22 9.929,20.372L8.477,24L29,24L29,26"/>
        <path id="Fill-111" d="M9.204,20.979L8.796,19.021L32,14.187L32,6L8,6L8,4L33,4C33.552,4 34,4.448 34,5L34,15C34,15.474 33.668,15.882 33.204,15.979L9.204,20.979"/>
        <path id="Fill-112" d="M30,32C27.794,32 26,30.206 26,28C26,25.794 27.794,24 30,24C32.206,24 34,25.794 34,28C34,30.206 32.206,32 30,32ZM30,26C28.897,26 28,26.897 28,28C28,29.103 28.897,30 30,30C31.103,30 32,29.103 32,28C32,26.897 31.103,26 30,26Z"/>
        <path id="Fill-113" d="M6,32C3.794,32 2,30.206 2,28C2,25.794 3.794,24 6,24C8.206,24 10,25.794 10,28C10,30.206 8.206,32 6,32ZM6,26C4.897,26 4,26.897 4,28C4,29.103 4.897,30 6,30C7.103,30 8,29.103 8,28C8,26.897 7.103,26 6,26Z"/>
    </g>
</svg>
